<?xml version="1.0"?>
<svg xmlns="http://www.w3.org/2000/svg" height="512px" version="1.1" viewBox="-60 0 600 600" width="512px" class=""><g><g id="surface1">
<path d="M 400 420 C 394.476562 420 390 424.476562 390 430 L 390 570 C 390 575.523438 385.523438 580 380 580 L 100 580 C 94.476562 580 90 575.523438 90 570 L 90 430 C 90 424.476562 85.523438 420 80 420 C 74.476562 420 70 424.476562 70 430 L 70 570 C 70 586.566406 83.433594 600 100 600 L 380 600 C 396.566406 600 410 586.566406 410 570 L 410 430 C 410 424.476562 405.523438 420 400 420 Z M 400 420 " data-original="#000000" class="active-path" data-old_color="#000000" fill="#00CDAC"/>
<path d="M 80 180 C 85.523438 180 90 175.523438 90 170 L 90 30 C 90 24.476562 94.476562 20 100 20 L 143.40625 20 L 153.671875 43.941406 C 155.242188 47.617188 158.863281 50 162.859375 50 L 317.140625 50 C 321.136719 50 324.757812 47.617188 326.328125 43.941406 L 336.59375 20 L 380 20 C 385.523438 20 390 24.476562 390 30 L 390 170 C 390 175.523438 394.476562 180 400 180 C 405.523438 180 410 175.523438 410 170 L 410 30 C 410 13.433594 396.566406 0 380 0 L 100 0 C 83.433594 0 70 13.433594 70 30 L 70 170 C 70 175.523438 74.476562 180 80 180 Z M 314.828125 20 L 310.550781 30 L 169.449219 30 L 165.171875 20 Z M 314.828125 20 " data-original="#000000" class="active-path" data-old_color="#000000" fill="#00CDAC"/>
<path d="M 150 570 L 330 570 C 335.523438 570 340 565.523438 340 560 C 340 554.476562 335.523438 550 330 550 L 150 550 C 144.476562 550 140 554.476562 140 560 C 140 565.523438 144.476562 570 150 570 Z M 150 570 " data-original="#000000" class="active-path" data-old_color="#000000" fill="#00CDAC"/>
<path d="M 240 270 C 223.433594 270 210 283.433594 210 300 C 210 316.566406 223.433594 330 240 330 C 256.566406 330 270 316.566406 270 300 C 270 283.433594 256.566406 270 240 270 Z M 240 310 C 234.476562 310 230 305.523438 230 300 C 230 294.476562 234.476562 290 240 290 C 245.523438 290 250 294.476562 250 300 C 250 305.523438 245.523438 310 240 310 Z M 240 310 " data-original="#000000" class="active-path" data-old_color="#000000" fill="#00CDAC"/>
<path d="M 240 150 C 157.15625 150 90 217.15625 90 300 C 90 382.84375 157.15625 450 240 450 C 322.84375 450 390 382.84375 390 300 C 389.90625 217.195312 322.804688 150.09375 240 150 Z M 367.796875 276.738281 L 310 312.519531 L 310 190.628906 C 340.367188 210.082031 361.296875 241.269531 367.796875 276.738281 Z M 190 326.078125 L 190 275.53125 L 242.75 242.53125 L 290 266.179688 L 290 324.902344 L 240.308594 355.660156 Z M 290 180 L 290 243.789062 L 176.152344 186.890625 C 210.984375 167.078125 253.03125 164.535156 290 180 Z M 157.261719 199.808594 L 221.792969 232.070312 L 110.097656 301.910156 C 110.097656 301.269531 110 300.640625 110 300 C 109.996094 261.21875 127.328125 224.46875 157.261719 199.808594 Z M 112.328125 324.09375 L 170 288 L 170 409.371094 C 139.875 390.078125 119.015625 359.234375 112.328125 324.09375 Z M 190 420 L 190 349.28125 L 301.179688 414.640625 C 266.816406 433.0625 225.976562 435.035156 190 420 Z M 319.808594 402.402344 L 259.808594 367.117188 L 370 298.941406 C 370 299.300781 370.046875 299.640625 370.046875 300 C 370.007812 340.058594 351.46875 377.851562 319.808594 402.402344 Z M 319.808594 402.402344 " data-original="#000000" class="active-path" data-old_color="#000000" fill="#00CDAC"/>
<path d="M 240 120 C 140.589844 120 60 200.589844 60 300 C 60 399.410156 140.589844 480 240 480 C 339.410156 480 420 399.410156 420 300 C 419.882812 200.632812 339.367188 120.117188 240 120 Z M 240 460 C 151.636719 460 80 388.363281 80 300 C 80 211.636719 151.636719 140 240 140 C 328.363281 140 400 211.636719 400 300 C 399.898438 388.320312 328.320312 459.898438 240 460 Z M 240 460 " data-original="#000000" class="active-path" data-old_color="#000000" fill="#00CDAC"/>
<path d="M 340 60 L 360 60 L 360 80 L 340 80 Z M 340 60 " data-original="#000000" class="active-path" data-old_color="#000000" fill="#00CDAC"/>
<path d="M 320 80 L 340 80 L 340 100 L 320 100 Z M 320 80 " data-original="#000000" class="active-path" data-old_color="#000000" fill="#00CDAC"/>
<path d="M 360 80 L 380 80 L 380 100 L 360 100 Z M 360 80 " data-original="#000000" class="active-path" data-old_color="#000000" fill="#00CDAC"/>
<path d="M 340 100 L 360 100 L 360 120 L 340 120 Z M 340 100 " data-original="#000000" class="active-path" data-old_color="#000000" fill="#00CDAC"/>
<path d="M 120 480 L 140 480 L 140 500 L 120 500 Z M 120 480 " data-original="#000000" class="active-path" data-old_color="#000000" fill="#00CDAC"/>
<path d="M 100 500 L 120 500 L 120 520 L 100 520 Z M 100 500 " data-original="#000000" class="active-path" data-old_color="#000000" fill="#00CDAC"/>
<path d="M 140 500 L 160 500 L 160 520 L 140 520 Z M 140 500 " data-original="#000000" class="active-path" data-old_color="#000000" fill="#00CDAC"/>
<path d="M 120 520 L 140 520 L 140 540 L 120 540 Z M 120 520 " data-original="#000000" class="active-path" data-old_color="#000000" fill="#00CDAC"/>
<path d="M 340 460 L 360 460 L 360 480 L 340 480 Z M 340 460 " data-original="#000000" class="active-path" data-old_color="#000000" fill="#00CDAC"/>
<path d="M 320 480 L 340 480 L 340 500 L 320 500 Z M 320 480 " data-original="#000000" class="active-path" data-old_color="#000000" fill="#00CDAC"/>
<path d="M 360 480 L 380 480 L 380 500 L 360 500 Z M 360 480 " data-original="#000000" class="active-path" data-old_color="#000000" fill="#00CDAC"/>
<path d="M 340 500 L 360 500 L 360 520 L 340 520 Z M 340 500 " data-original="#000000" class="active-path" data-old_color="#000000" fill="#00CDAC"/>
<path d="M 430 170 L 450 170 L 450 190 L 430 190 Z M 430 170 " data-original="#000000" class="active-path" data-old_color="#000000" fill="#00CDAC"/>
<path d="M 410 190 L 430 190 L 430 210 L 410 210 Z M 410 190 " data-original="#000000" class="active-path" data-old_color="#000000" fill="#00CDAC"/>
<path d="M 450 190 L 470 190 L 470 210 L 450 210 Z M 450 190 " data-original="#000000" class="active-path" data-old_color="#000000" fill="#00CDAC"/>
<path d="M 430 210 L 450 210 L 450 230 L 430 230 Z M 430 210 " data-original="#000000" class="active-path" data-old_color="#000000" fill="#00CDAC"/>
<path d="M 30 370 L 50 370 L 50 390 L 30 390 Z M 30 370 " data-original="#000000" class="active-path" data-old_color="#000000" fill="#00CDAC"/>
<path d="M 10 390 L 30 390 L 30 410 L 10 410 Z M 10 390 " data-original="#000000" class="active-path" data-old_color="#000000" fill="#00CDAC"/>
<path d="M 50 390 L 70 390 L 70 410 L 50 410 Z M 50 390 " data-original="#000000" class="active-path" data-old_color="#000000" fill="#00CDAC"/>
<path d="M 30 410 L 50 410 L 50 430 L 30 430 Z M 30 410 " data-original="#000000" class="active-path" data-old_color="#000000" fill="#00CDAC"/>
<path d="M 120 80 L 140 80 L 140 100 L 120 100 Z M 120 80 " data-original="#000000" class="active-path" data-old_color="#000000" fill="#00CDAC"/>
<path d="M 100 100 L 120 100 L 120 120 L 100 120 Z M 100 100 " data-original="#000000" class="active-path" data-old_color="#000000" fill="#00CDAC"/>
<path d="M 140 100 L 160 100 L 160 120 L 140 120 Z M 140 100 " data-original="#000000" class="active-path" data-old_color="#000000" fill="#00CDAC"/>
<path d="M 120 120 L 140 120 L 140 140 L 120 140 Z M 120 120 " data-original="#000000" class="active-path" data-old_color="#000000" fill="#00CDAC"/>
<path d="M 40 190 L 60 190 L 60 210 L 40 210 Z M 40 190 " data-original="#000000" class="active-path" data-old_color="#000000" fill="#00CDAC"/>
<path d="M 420 390 L 440 390 L 440 410 L 420 410 Z M 420 390 " data-original="#000000" class="active-path" data-old_color="#000000" fill="#00CDAC"/>
<path d="M 0 290 L 20 290 L 20 310 L 0 310 Z M 0 290 " data-original="#000000" class="active-path" data-old_color="#000000" fill="#00CDAC"/>
<path d="M 460 290 L 480 290 L 480 310 L 460 310 Z M 460 290 " data-original="#000000" class="active-path" data-old_color="#000000" fill="#00CDAC"/>
</g></g> </svg>
